# xmcd
#
# Track frame offsets:
#	150
#	25837
#	73497
#	106984
#	118557
#	134906
#	152126
#	160949
#	174872
#	186077
#	206610
#	220496
#	234405
#	253370
#	267360
#	278553
#	291277
#
# Disc length: 4026 seconds
#
# Revision: 1
# Processed by: cddbd v1.5.2PL0 Copyright (c) Steve Scherf et al.
# Submitted via: audiograbber 1.83.01
#
DISCID=0b0fb811
DTITLE=Hana a Petr Ulrychovi - Pulstoleti CD3
DYEAR=2014
DGENRE=Folk
TTITLE0=O statecnem kovari
TTITLE1=Putovani
TTITLE2=Javorova hora
TTITLE3=Tichy hlas
TTITLE4=Diky za kazde nove rano
TTITLE5=Pry musis mluvit tise
TTITLE6=O nadeji
TTITLE7=Svetlo a stin
TTITLE8=Modlitba
TTITLE9=Blazni v desti
TTITLE10=Kniha
TTITLE11=Mela baba trnku
TTITLE12=Vetvicka zelena
TTITLE13=Nesnadne leto
TTITLE14=Starej bigbit
TTITLE15=Nevratil jsem nic
TTITLE16=Smula
EXTD=
EXTT0=
EXTT1=
EXTT2=
EXTT3=
EXTT4=
EXTT5=
EXTT6=
EXTT7=
EXTT8=
EXTT9=
EXTT10=
EXTT11=
EXTT12=
EXTT13=
EXTT14=
EXTT15=
EXTT16=
PLAYORDER=
